<svg width="90" height="30" viewBox="0 0 90 30" fill="none" xmlns="http://www.w3.org/2000/svg">
<path d="M70.0848 28L70.8528 27.9403C70.8835 28.2388 70.9757 28.4776 71.0986 28.6567C71.2215 28.8358 71.4365 28.9851 71.713 29.1045C71.9895 29.2239 72.2967 29.2836 72.6653 29.2836C72.9725 29.2836 73.249 29.2537 73.4947 29.1642C73.7405 29.0746 73.8941 28.9552 74.017 28.806C74.1398 28.6567 74.2013 28.4776 74.2013 28.2985C74.2013 28.1194 74.1398 27.9701 74.0477 27.8209C73.9248 27.6716 73.7405 27.5821 73.4947 27.4925C73.3411 27.4328 72.9725 27.3433 72.3888 27.2239C71.8359 27.1045 71.4365 26.9851 71.1907 26.8657C70.8835 26.7164 70.6685 26.5373 70.5456 26.3284C70.392 26.1194 70.3306 25.8806 70.3306 25.6119C70.3306 25.3134 70.4227 25.0448 70.6071 24.7761C70.7914 24.5075 71.0371 24.3284 71.3751 24.209C71.713 24.0896 72.0816 24 72.5117 24C72.9725 24 73.3718 24.0597 73.7098 24.209C74.0477 24.3582 74.3242 24.5373 74.5085 24.806C74.6928 25.0746 74.785 25.3731 74.8157 25.7313L74.0477 25.791C74.017 25.4328 73.8634 25.1642 73.6176 24.9552C73.3718 24.7761 73.0339 24.6866 72.5424 24.6866C72.0509 24.6866 71.6823 24.7761 71.4672 24.9552C71.2522 25.1343 71.1293 25.3433 71.1293 25.5821C71.1293 25.791 71.2215 25.9701 71.3751 26.0896C71.5287 26.209 71.928 26.3582 72.6039 26.5075C73.249 26.6567 73.7098 26.7761 73.9555 26.8657C74.3242 27.0149 74.5699 27.2239 74.7542 27.4627C74.9386 27.7015 75 27.9701 75 28.2687C75 28.5672 74.9078 28.8657 74.7235 29.1343C74.5392 29.403 74.2627 29.6119 73.9248 29.7612C73.5869 29.9104 73.1875 30 72.7575 30C72.2045 30 71.7437 29.9104 71.3751 29.7612C71.0064 29.6119 70.6992 29.3731 70.4842 29.0746C70.2077 28.7164 70.1155 28.3881 70.0848 28ZM62.8349 29.8507V24.0597H67.2586V24.7463H63.6337V26.5373H67.0128V27.2239H63.6337V29.1642H67.3815V29.8507H62.8349ZM58.7799 29.8507V24.0597H59.5786V29.8507H58.7799ZM51.4686 26.6269H53.2196C53.5883 26.6269 53.8647 26.597 54.0798 26.5075C54.2948 26.4478 54.4484 26.3284 54.5406 26.1493C54.6635 26 54.6942 25.8209 54.6942 25.6418C54.6942 25.3731 54.602 25.1343 54.387 24.9552C54.1719 24.7761 53.834 24.6866 53.4039 24.6866H51.4686V26.6269ZM50.6392 29.8507V24.0597H53.3425C53.8955 24.0597 54.2948 24.1194 54.602 24.209C54.8785 24.2985 55.1243 24.5075 55.2779 24.7463C55.4622 25.0149 55.5236 25.3134 55.5236 25.6119C55.5236 26.0298 55.37 26.3582 55.0935 26.6567C54.8171 26.9254 54.387 27.1045 53.8033 27.194C54.0183 27.2836 54.1719 27.403 54.2948 27.4925C54.5406 27.7015 54.7556 27.9403 54.9707 28.2687L56.0458 29.8507H55.0321L54.2334 28.6567C53.9876 28.2985 53.8033 28.0298 53.6497 27.8507C53.4961 27.6716 53.3732 27.5522 53.2503 27.4627C53.1275 27.403 53.0046 27.3433 52.8817 27.3134C52.7895 27.2836 52.6359 27.2836 52.4209 27.2836H51.4686V29.8507H50.6392ZM45.1403 29.8507V24.7463H43.1128V24.0597H47.9665V24.7463H45.939V29.8507H45.1403ZM35.8015 28L36.5695 27.9403C36.6002 28.2388 36.6923 28.4776 36.8152 28.6567C36.9381 28.8358 37.1531 28.9851 37.4296 29.1045C37.7061 29.2239 38.0133 29.2836 38.3819 29.2836C38.6891 29.2836 38.9656 29.2537 39.2114 29.1642C39.4571 29.0746 39.6107 28.9552 39.7336 28.806C39.8565 28.6567 39.9179 28.4776 39.9179 28.2985C39.9179 28.1194 39.8565 27.9701 39.7643 27.8209C39.6414 27.6716 39.4571 27.5821 39.2114 27.4925C39.0578 27.4328 38.6891 27.3433 38.1055 27.2239C37.5525 27.1045 37.1531 26.9851 36.9074 26.8657C36.6002 26.7164 36.3851 26.5373 36.2623 26.3284C36.1087 26.1194 36.0472 25.8806 36.0472 25.6119C36.0472 25.3134 36.1394 25.0448 36.3237 24.7761C36.508 24.5075 36.7538 24.3284 37.0917 24.209C37.4296 24.0896 37.7983 24 38.2283 24C38.6891 24 39.0885 24.0597 39.4264 24.209C39.7643 24.3582 40.0408 24.5373 40.2251 24.806C40.4094 25.0746 40.5016 25.3731 40.5323 25.7313L39.7643 25.791C39.7336 25.4328 39.58 25.1642 39.3343 24.9552C39.0885 24.7761 38.7506 24.6866 38.2591 24.6866C37.7675 24.6866 37.3989 24.7761 37.1839 24.9552C36.9688 25.1343 36.8459 25.3433 36.8459 25.5821C36.8459 25.791 36.9381 25.9701 37.0917 26.0896C37.2453 26.209 37.6447 26.3582 38.3205 26.5075C38.9656 26.6567 39.4264 26.7761 39.6722 26.8657C40.0408 27.0149 40.2866 27.2239 40.4709 27.4627C40.6552 27.7015 40.7166 27.9701 40.7166 28.2687C40.7166 28.5672 40.6245 28.8657 40.4402 29.1343C40.2558 29.403 39.9794 29.6119 39.6414 29.7612C39.3035 29.9104 38.9042 30 38.4741 30C37.9211 30 37.4603 29.9104 37.0917 29.7612C36.7231 29.6119 36.4159 29.3731 36.2008 29.0746C35.9243 28.7164 35.8015 28.3881 35.8015 28ZM32.8831 24.0597V27.403C32.8831 28 32.8216 28.4478 32.668 28.7761C32.5144 29.1045 32.2687 29.403 31.9 29.6119C31.5314 29.8209 31.0706 29.9403 30.4562 29.9403C29.8725 29.9403 29.4117 29.8507 29.0431 29.6716C28.6745 29.4925 28.4287 29.2239 28.2751 28.8657C28.1215 28.5075 28.0293 28.0298 28.0293 27.403V24.0597H28.8281V27.403C28.8281 27.9104 28.8895 28.2687 28.9817 28.5075C29.0738 28.7463 29.2581 28.9254 29.5039 29.0448C29.7497 29.1642 30.0261 29.2239 30.3948 29.2239C30.9785 29.2239 31.4085 29.1045 31.6543 28.8358C31.9 28.5672 32.0229 28.0896 32.0229 27.3731V24.0597H32.8831ZM20.8716 29.1642H22.1926C22.5919 29.1642 22.8991 29.1343 23.1449 29.0448C23.3599 28.9851 23.5442 28.8657 23.6978 28.7463C23.8822 28.5672 24.0358 28.3284 24.1586 28C24.2508 27.7015 24.3122 27.3134 24.3122 26.8955C24.3122 26.2985 24.2201 25.8209 24.005 25.4925C23.7593 25.194 23.5135 24.9851 23.2063 24.8657C22.9913 24.7761 22.6534 24.7463 22.1619 24.7463H20.8716V29.1642ZM20.0422 29.8507V24.0597H22.1619C22.6534 24.0597 22.9913 24.0896 23.2678 24.1493C23.6057 24.2388 23.9129 24.3582 24.1586 24.5672C24.4966 24.8358 24.7116 25.1642 24.8959 25.5522C25.0495 25.9403 25.1417 26.4179 25.1417 26.9254C25.1417 27.3731 25.0802 27.7612 24.9881 28.0896C24.8652 28.4179 24.7423 28.7164 24.558 28.9254C24.3737 29.1343 24.1894 29.3134 24.005 29.4627C23.79 29.5821 23.575 29.7015 23.2678 29.7612C22.9913 29.8209 22.6534 29.8507 22.2847 29.8507H20.0422ZM12.055 29.8507V24.0597H12.8845L16.11 28.597V24.0597H16.878V29.8507H16.0486L12.823 25.3134V29.8507H12.055ZM8 29.8507V24.0597H8.79872V29.8507H8Z" fill="#132048"/>
<path d="M21.293 17.7039H16.6812L11.6768 12.752H4.93893V9.67724H13.3122C14.7841 9.67724 15.8962 9.32123 16.6484 8.60919C17.3026 7.96188 17.6297 7.18511 17.5643 6.24652C17.4334 4.14277 16.027 3.10707 13.3122 3.10707H3.10727V17.7362H0V0H12.8543C15.5691 0 17.597 0.647307 19.0034 1.94192C20.1809 3.00998 20.8024 4.46642 20.8351 6.21415C20.9005 7.60586 20.508 8.83574 19.723 9.9038C18.8399 11.1013 17.5643 11.9105 15.8635 12.3636L21.293 17.7039Z" fill="#132048"/>
<path d="M38.9227 16.83L27.4749 5.43738V17.7039H24.3676V1.55354C24.3676 1.06806 24.4984 0.712038 24.7274 0.42075C24.989 0.129461 25.3161 0 25.7086 0C26.2974 0 26.8861 0.291288 27.4749 0.90623L38.9227 12.2988V0H42.03V16.1827C42.03 17.3155 41.6375 17.898 40.8525 17.898C40.2964 17.898 39.6423 17.542 38.9227 16.83Z" fill="#132048"/>
<path d="M79.7623 16.2474C79.0428 17.3478 78.4213 17.9304 77.898 17.9951C77.3092 18.0599 76.6224 17.4773 75.8701 16.2474L65.8941 0H69.9172L77.898 13.1727L85.9769 0H90L79.7623 16.2474Z" fill="#132048"/>
<path d="M46.7072 17.7039V0H56.8141C59.6924 0 61.9492 0.90623 63.6174 2.71869C65.0892 4.30459 65.8415 6.31125 65.8415 8.67392C65.8415 11.1013 65.0892 13.1727 63.5519 14.8881C61.8838 16.7653 59.627 17.7039 56.8468 17.7039H46.7072ZM49.8145 3.07471V14.6291H56.8141C58.7438 14.6291 60.2484 14.0142 61.3605 12.752C62.3417 11.6515 62.7997 10.2598 62.7342 8.67392C62.6688 7.15275 62.1782 5.85813 61.1642 4.82244C60.0522 3.65729 58.613 3.07471 56.8468 3.07471H49.8145Z" fill="#132048"/>
</svg>
