<?xml version="1.0" encoding="UTF-8"?>
<svg id="Layer_1" xmlns="http://www.w3.org/2000/svg" viewBox="0 0 40 40.01">
  <defs>
    <style>
      .cls-1 {
        fill: #fcb401;
      }

      .cls-2 {
        fill: #fff;
      }
    </style>
  </defs>
  <rect class="cls-2" x="3" y="2" width="34" height="35"/>
  <path class="cls-1" d="M40,0H0s0,0,0,0v40.01h40V0s0,0,0,0ZM17.67,13.07c-.07.03-.11.08-.11.14v19.88c0,.09-.09.16-.21.16h-4.45c-.12,0-.21-.07-.21-.16V11.03c0-.06.04-.11.11-.14l1.39-.58,1.39-.61,1.39-.61,1.39-.61,1.39-.61,1.39-.61,1.06-.47c.14-.06.32.02.32.14l-.07,3.92c0,.05-.04.11-.1.13l-1.55.72-1.39.61-1.39.61-.34.15ZM27.31,28.66v.83c0,.05-.04.11-.09.14l-7.25,3.6s-.07.02-.11.02h-.56c-.11,0-.2-.07-.2-.16v-3.42c0-.06.04-.11.1-.14l4.74-2.27c.06-.03.1-.08.1-.14v-.91c0-.13.19-.21.32-.13l2.88,1.61c.05.03.09.08.09.13v.84ZM27.31,22.39v.83c0,.05-.04.11-.09.14l-7.25,3.6s-.07.02-.11.02h-.56c-.11,0-.2-.07-.2-.16v-3.42c0-.06.04-.11.1-.14l4.74-2.27c.06-.03.1-.08.1-.14v-.91c0-.13.19-.21.32-.13l2.88,1.61c.05.03.09.08.09.13v.84ZM27.31,15.97v.83c0,.05-.04.11-.09.14l-7.25,3.6s-.07.02-.11.02h-.56c-.11,0-.2-.07-.2-.16v-3.42c0-.06.04-.11.1-.14l4.74-2.27c.06-.03.1-.08.1-.14v-.91c0-.13.19-.21.32-.13l2.88,1.61c.05.03.09.08.09.13v.84Z"/>
</svg>