<svg xmlns="http://www.w3.org/2000/svg" viewBox="0 0 40 40"><path d="M3 2h34v35H3z" style="fill:#fff"/><path d="M40 0H0v40h40V0ZM17.7 13l-.1.2v19.9l-.2.2h-4.5l-.2-.2V11l.1-.2 1.4-.6 1.4-.6 1.4-.6 1.4-.6 1.4-.6 1.3-.6 1.1-.5.3.1v4h-.1l-1.6.8-1.4.6-1.4.6-.3.2Zm9.6 15.7v.9L20 33.2h-.7l-.2-.1v-3.4l.1-.2 4.7-2.2.1-.2v-.9c0-.1.2-.2.4-.1l2.8 1.6.1.1v.9Zm0-6.3v1L20 27h-.7c-.1 0-.2 0-.2-.2v-3.4l.1-.1 4.7-2.3.1-.2V20s.2-.2.4 0l2.8 1.5.1.1v.9Zm0-6.4v.9L20 20.5h-.7l-.2-.1V17l.1-.2 4.7-2.2.1-.2v-.9c0-.1.2-.2.4-.1l2.8 1.6.1.1v.9Z" style="fill:#fcb401"/></svg>