<?xml version="1.0" encoding="UTF-8"?>
<svg xmlns="http://www.w3.org/2000/svg" version="1.1" viewBox="0 0 729.7 151.1">
  <defs>
    <style>
      .cls-1 {
        fill: #fcb401;
      }

      .cls-2 {
        fill: #fff;
      }
    </style>
  </defs>
  <!-- Generator: Adobe Illustrator 28.6.0, SVG Export Plug-In . SVG Version: 1.2.0 Build 709)  -->
  <g>
    <g id="Layer_1">
      <g>
        <path class="cls-1" d="M210.4,47.5v22.6h26.1v14.1h-26.1v23.4h30.3v14.5h-46V33h46v14.5h-30.3Z"/>
        <path class="cls-1" d="M252.3,97.5v-39.9c0-15.8,11.3-26.2,28.3-26.2s28.1,10.4,28.1,26.2v7.3h-15.7v-6.9c0-7.5-5-12.1-12.4-12.1s-12.5,4.6-12.5,12.1v39.1c0,7.5,4.9,12.1,12.5,12.1s12.4-4.7,12.4-12.1v-6.9h15.7v7.3c0,15.8-11.2,26.2-28.1,26.2-17,0-28.3-10.4-28.3-26.2Z"/>
        <path class="cls-1" d="M319.9,96.8v-38.6c0-16.2,11.4-26.9,28.9-26.9s28.6,10.6,28.6,26.9v38.6c0,16.2-11.3,26.9-28.6,26.9s-28.9-10.6-28.9-26.9ZM361.7,96.4v-37.8c0-7.7-5.2-12.8-12.9-12.8s-13,5.1-13,12.8v37.8c0,7.7,5,12.8,13,12.8s12.9-5.1,12.9-12.8Z"/>
        <path class="cls-1" d="M391.3,33h18.5l21.9,59.7h1.2l-.8-6.1v-53.6h15.8v89.1h-18.6l-21.8-59.7h-1.2l.7,6.1v53.6h-15.7V33Z"/>
        <path class="cls-1" d="M502.5,61.5v-3.5c0-7.3-4.9-12.1-12.4-12.1s-12.5,4.6-12.5,12.1v39.9c0,7.2,4.9,12.1,12.5,12.1s12.4-4.8,12.4-12.1v-10.4h-11.3v-13.3h27v23.3c0,16-11.2,26.2-28.1,26.2s-28.3-10.4-28.3-26.2v-39.9c0-15.8,11.3-26.2,28.3-26.2s28.1,10.2,28.1,26.2v3.9h-15.7Z"/>
        <path class="cls-1" d="M561.4,54v16.9h-2.5c-8.5,0-13.3,5.7-13.3,12.8v38.4h-14.9V55.6h14.9v9h.7c2-6.7,6.7-10.6,13.3-10.6h1.9Z"/>
        <path class="cls-1" d="M567.5,101.9v-26.1c0-13,9.3-21.8,23.4-21.8s23.3,8.8,23.3,21.8v26.1c0,13-9.3,21.8-23.3,21.8-14.1,0-23.4-8.8-23.4-21.8ZM599.3,101.8v-25.8c0-4.9-3.3-8.2-8.4-8.2s-8.5,3.3-8.5,8.2v25.8c0,4.9,3.3,8.2,8.5,8.2s8.4-3.3,8.4-8.2Z"/>
        <path class="cls-1" d="M670,55.6v66.5h-14.9v-7h-.9c-2,5-7.1,8.6-13.8,8.6s-15.6-6.5-15.6-16.1v-52h14.9v46.5c0,4.7,2.9,7.6,7.3,7.6s8.1-3.5,8.1-7.5v-46.7h14.9Z"/>
        <path class="cls-1" d="M729.7,71.8v34c0,10.5-6.8,17.8-16.8,17.8s-12.1-3.6-14.2-8.9h-.7v31.2h-14.9V55.6h14.9v7.3h.7c2.1-5.3,7.4-8.9,14.2-8.9,10,0,16.8,7.3,16.8,17.8ZM714.8,76.2c0-5-3.3-8.2-8.2-8.2s-8.5,3.7-8.5,8.1v25.5c0,4.4,3.5,8.1,8.5,8.1s8.2-3.2,8.2-8.2v-25.3Z"/>
      </g>
      <path class="cls-1" d="M124.2,151.1H26.9c-14.9,0-26.9-12.1-26.9-26.9V26.9C0,12.1,12.1,0,26.9,0h97.2c14.9,0,26.9,12.1,26.9,26.9v97.2c0,14.9-12.1,26.9-26.9,26.9Z"/>
      <g>
        <path class="cls-2" d="M79.8,27.4l-5.2,2.3-5.2,2.3-5.2,2.3-5.2,2.3-5.2,2.3-5.2,2.2c-.3.1-.4.3-.4.5v83.3c0,.3.4.6.8.6h16.8c.4,0,.8-.3.8-.6V49.9c0-.2.2-.4.4-.5l1.3-.6,5.2-2.3,5.2-2.3,5.8-2.7c.2-.1.4-.3.4-.5l.3-14.8c0-.5-.7-.8-1.2-.5l-4,1.8Z"/>
        <path class="cls-2" d="M92,50.6c-.5-.3-1.2,0-1.2.5v3.4c0,.2-.1.4-.4.5l-17.9,8.6c-.2.1-.4.3-.4.5v12.9c0,.3.3.6.8.6h2.1c.2,0,.3,0,.4,0l27.4-13.6c.2-.1.4-.3.4-.5v-6.3c0-.2-.1-.4-.3-.5l-10.9-6.1Z"/>
        <path class="cls-2" d="M92,74.8c-.5-.3-1.2,0-1.2.5v3.4c0,.2-.1.4-.4.5l-17.9,8.6c-.2.1-.4.3-.4.5v12.9c0,.3.3.6.8.6h2.1c.2,0,.3,0,.4,0l27.4-13.6c.2-.1.4-.3.4-.5v-6.3c0-.2-.1-.4-.3-.5l-10.9-6.1Z"/>
        <path class="cls-2" d="M92,98.5c-.5-.3-1.2,0-1.2.5v3.4c0,.2-.1.4-.4.5l-17.9,8.6c-.2.1-.4.3-.4.5v12.9c0,.3.3.6.8.6h2.1c.2,0,.3,0,.4,0l27.4-13.6c.2-.1.4-.3.4-.5v-6.3c0-.2-.1-.4-.3-.5l-10.9-6.1Z"/>
      </g>
    </g>
  </g>
</svg>