<svg xmlns="http://www.w3.org/2000/svg" viewBox="0 0 729.7 151.1"><defs><style>.cls-1{fill:#fcb401}.cls-2{fill:#fff}</style></defs><g id="Layer_1"><path d="M210 48v22h27v14h-27v24h31v14h-46V33h46v15h-31ZM252 98V58c0-16 12-27 29-27s28 11 28 27v7h-16v-7c0-7-5-12-12-12s-13 5-13 12v39c0 8 5 12 13 12s12-4 12-12v-7h16v8c0 15-11 26-28 26s-29-11-29-26ZM320 97V58c0-16 11-27 29-27s28 11 28 27v39c0 16-11 27-28 27s-29-11-29-27Zm42-1V59c0-8-6-13-13-13s-13 5-13 13v37c0 8 5 13 13 13s13-5 13-13ZM391 33h19l22 60h1l-1-6V33h16v89h-19l-22-60h-1l1 6v54h-16V33ZM503 62v-4c0-7-5-12-13-12s-12 4-12 12v40c0 7 5 12 12 12s13-5 13-12V88h-12V74h27v24c0 16-11 26-28 26s-28-11-28-26V58c0-16 11-27 28-27s28 11 28 27v4h-15ZM561 54v17h-2c-9 0-13 6-13 13v38h-15V56h15v9c2-7 7-11 14-11h2ZM568 102V76c0-13 9-22 23-22s23 9 23 22v26c0 13-9 22-23 22s-24-9-24-22Zm31 0V76c0-5-3-8-8-8s-9 3-9 8v26c0 5 4 8 9 8s8-3 8-8ZM670 56v66h-15v-7h-1c-2 5-7 9-14 9s-15-7-15-16V56h15v46c0 5 3 8 7 8s8-4 8-8V55h15ZM730 72v34c0 10-7 18-17 18s-12-4-14-9h-1v31h-15V56h15v7h1c2-5 7-9 14-9 10 0 17 7 17 18Zm-15 4c0-5-4-8-8-8s-9 4-9 8v26c0 4 4 8 9 8s8-4 8-9V76ZM124 151H27c-15 0-27-12-27-27V27C0 12 12 0 27 0h97c15 0 27 12 27 27v97c0 15-12 27-27 27Z" class="cls-1"/><path d="m80 27-5 3-6 2-5 2-5 3-5 2-5 2-1 1v83h19V49h1l5-3 6-2 5-3h1V26h-1l-4 1Z" class="cls-2"/><path d="M92 51h-1v4h-1l-18 9v13l1 1h2l28-14v-7l-11-6ZM92 75h-1v4h-1l-18 9v13l1 1h2l28-14v-7l-11-6ZM92 99h-1v3l-1 1-18 9v13l1 1h2l28-14v-7l-11-6Z" class="cls-2"/></g></svg>