<?xml version="1.0" encoding="utf-8"?>
<!-- Generator: Adobe Illustrator 25.0.0, SVG Export Plug-In . SVG Version: 6.00 Build 0)  -->
<svg version="1.1" id="Layer_1" xmlns="http://www.w3.org/2000/svg" xmlns:xlink="http://www.w3.org/1999/xlink" x="0px" y="0px"
	 viewBox="0 0 1920 1080" style="enable-background:new 0 0 1920 1080;" xml:space="preserve">
<style type="text/css">
	.st0{fill:#FCB401;}
	.st1{fill:#FFFFFF;}
</style>
<g>
	<path class="st0" d="M802.62,511.94v22.61h26.07v14.1h-26.07v23.41h30.32v14.5h-46.02v-89.11h46.02v14.5H802.62z"/>
	<path class="st0" d="M844.52,561.95v-39.9c0-15.83,11.3-26.2,28.33-26.2c16.89,0,28.06,10.37,28.06,26.2v7.31h-15.69v-6.92
		c0-7.45-5.05-12.1-12.37-12.1c-7.58,0-12.5,4.65-12.5,12.1v39.1c0,7.45,4.92,12.1,12.5,12.1c7.31,0,12.37-4.66,12.37-12.1v-6.92
		h15.69v7.31c0,15.83-11.17,26.2-28.06,26.2C855.82,588.15,844.52,577.77,844.52,561.95z"/>
	<path class="st0" d="M912.08,561.28v-38.57c0-16.23,11.44-26.87,28.86-26.87c17.29,0,28.59,10.64,28.59,26.87v38.57
		c0,16.23-11.3,26.87-28.59,26.87C923.52,588.15,912.08,577.51,912.08,561.28z M953.84,560.88v-37.77c0-7.71-5.19-12.77-12.9-12.77
		c-7.98,0-13.03,5.05-13.03,12.77v37.77c0,7.71,5.05,12.77,13.03,12.77C948.65,573.65,953.84,568.59,953.84,560.88z"/>
	<path class="st0" d="M983.5,497.44h18.49l21.94,59.71h1.2l-0.8-6.12v-53.6h15.83v89.11h-18.62l-21.81-59.71h-1.2l0.67,6.12v53.6
		H983.5V497.44z"/>
	<path class="st0" d="M1094.69,525.9v-3.46c0-7.31-4.92-12.1-12.37-12.1c-7.58,0-12.5,4.65-12.5,12.1v39.9
		c0,7.18,4.92,12.1,12.5,12.1c7.31,0,12.37-4.79,12.37-12.1v-10.37h-11.3v-13.3h27v23.27c0,15.96-11.17,26.2-28.06,26.2
		c-17.02,0-28.33-10.37-28.33-26.2v-39.9c0-15.83,11.3-26.2,28.33-26.2c16.89,0,28.06,10.24,28.06,26.2v3.86H1094.69z"/>
	<path class="st0" d="M1153.6,518.46v16.89h-2.53c-8.51,0-13.3,5.72-13.3,12.77v38.44h-14.9v-66.5h14.9v9.04h0.67
		c2-6.65,6.65-10.64,13.3-10.64H1153.6z"/>
	<path class="st0" d="M1159.72,566.33v-26.07c0-13.03,9.31-21.81,23.41-21.81c13.96,0,23.27,8.78,23.27,21.81v26.07
		c0,13.03-9.31,21.81-23.27,21.81C1169.03,588.15,1159.72,579.37,1159.72,566.33z M1191.51,566.2v-25.8c0-4.92-3.33-8.25-8.38-8.25
		c-5.19,0-8.51,3.32-8.51,8.25v25.8c0,4.92,3.33,8.25,8.51,8.25C1188.18,574.45,1191.51,571.12,1191.51,566.2z"/>
	<path class="st0" d="M1262.13,520.05v66.5h-14.9v-7.05h-0.93c-2,5.05-7.05,8.64-13.83,8.64c-9.18,0-15.56-6.52-15.56-16.09v-52
		h14.9v46.55c0,4.65,2.93,7.58,7.32,7.58c4.79,0,8.11-3.46,8.11-7.45v-46.68H1262.13z"/>
	<path class="st0" d="M1321.85,536.28v34.05c0,10.51-6.78,17.82-16.76,17.82c-6.65,0-12.1-3.59-14.23-8.91h-0.67v31.25h-14.9v-90.44
		h14.9v7.31h0.67c2.13-5.32,7.45-8.91,14.23-8.91C1315.06,518.46,1321.85,525.77,1321.85,536.28z M1306.95,540.67
		c0-5.05-3.33-8.25-8.25-8.25c-5.05,0-8.51,3.72-8.51,8.11v25.54c0,4.39,3.46,8.11,8.51,8.11c4.92,0,8.25-3.19,8.25-8.25V540.67z"/>
</g>
<path class="st0" d="M716.35,615.54h-97.24c-14.87,0-26.93-12.06-26.93-26.93v-97.24c0-14.87,12.06-26.93,26.93-26.93h97.24
	c14.87,0,26.93,12.06,26.93,26.93v97.24C743.27,603.49,731.22,615.54,716.35,615.54z"/>
<g>
	<path class="st1" d="M671.99,491.84l-5.24,2.31l-5.24,2.31l-5.24,2.31l-5.24,2.31l-5.24,2.31l-5.24,2.17
		c-0.26,0.11-0.41,0.31-0.41,0.53v83.32c0,0.33,0.36,0.6,0.8,0.6h16.79c0.44,0,0.8-0.27,0.8-0.6v-75.08c0-0.21,0.15-0.41,0.4-0.52
		l1.3-0.57l5.24-2.31l5.24-2.31l5.84-2.71c0.23-0.11,0.38-0.3,0.38-0.51l0.28-14.81c0.01-0.47-0.67-0.77-1.21-0.53L671.99,491.84z"
		/>
	<path class="st1" d="M684.13,515.03c-0.51-0.29-1.22,0-1.22,0.49v2.29v1.15c0,0.21-0.14,0.41-0.37,0.52l-17.89,8.56
		c-0.23,0.11-0.37,0.3-0.37,0.52v12.92c0,0.33,0.35,0.6,0.77,0.6h2.11c0.15,0,0.29-0.03,0.41-0.09l27.39-13.59
		c0.22-0.11,0.36-0.3,0.36-0.51v-3.13v-3.15c0-0.2-0.12-0.38-0.32-0.49L684.13,515.03z"/>
	<path class="st1" d="M684.13,539.29c-0.51-0.29-1.22,0-1.22,0.49v2.29v1.15c0,0.21-0.14,0.41-0.37,0.52l-17.89,8.56
		c-0.23,0.11-0.37,0.3-0.37,0.52v12.92c0,0.33,0.35,0.6,0.77,0.6h2.11c0.15,0,0.29-0.03,0.41-0.09l27.39-13.59
		c0.22-0.11,0.36-0.3,0.36-0.51V549v-3.15c0-0.2-0.12-0.38-0.32-0.49L684.13,539.29z"/>
	<path class="st1" d="M684.13,562.98c-0.51-0.29-1.22,0-1.22,0.49v2.29v1.15c0,0.21-0.14,0.41-0.37,0.52l-17.89,8.56
		c-0.23,0.11-0.37,0.3-0.37,0.52v12.92c0,0.33,0.35,0.6,0.77,0.6h2.11c0.15,0,0.29-0.03,0.41-0.09l27.39-13.59
		c0.22-0.11,0.36-0.3,0.36-0.51v-3.13v-3.15c0-0.2-0.12-0.38-0.32-0.49L684.13,562.98z"/>
</g>
</svg>
